<?xml version="1.0" encoding="UTF-8" standalone="no"?><!DOCTYPE svg PUBLIC "-//W3C//DTD SVG 1.1//EN" "http://www.w3.org/Graphics/SVG/1.1/DTD/svg11.dtd"><svg width="100%" height="100%" viewBox="0 0 169 117" version="1.1" xmlns="http://www.w3.org/2000/svg" xmlns:xlink="http://www.w3.org/1999/xlink" xml:space="preserve" xmlns:serif="http://www.serif.com/" style="fill-rule:evenodd;clip-rule:evenodd;stroke-linecap:round;stroke-linejoin:round;stroke-miterlimit:1.5;"><g id="Logo"><g id="Sides"><path d="M105.139,50.299l-75.2,43.417l0,19.296l75.2,-43.417l33.422,19.297l0,-19.297l-33.422,-19.296Z" style="fill:#00ffb2;"/><path d="M163.473,55.034l-16.557,9.737l16.711,9.648l-0.154,-19.385Z" style="fill:#00ffb2;"/><path d="M80.072,35.827l-33.422,-19.296l0,19.296l16.711,9.648l16.711,-9.648Z" style="fill:#00ffb2;"/><path d="M163.627,16.531l-33.422,19.296l16.711,9.648l16.711,-9.648l0,-19.296Z" style="fill:#00ffb2;"/><path d="M21.584,88.892l-16.711,-9.649l0,19.297l16.711,-9.648Z" style="fill:#00ffb2;"/></g><g id="Bottom-Outlines" serif:id="Bottom Outlines"><g><path d="M29.939,113.012l75.2,-43.417l33.422,19.297" style="fill:none;stroke:#008059;stroke-width:1.93px;"/><circle cx="29.939" cy="113.012" r="1.93" style="fill:#008059;stroke:#008059;stroke-width:1px;"/><circle cx="138.561" cy="88.892" r="1.93" style="fill:#008059;stroke:#008059;stroke-width:1px;"/></g><g><path d="M163.627,74.419l-16.711,-9.648" style="fill:none;stroke:#008059;stroke-width:1.93px;"/><circle cx="163.627" cy="74.419" r="1.93" style="fill:#008059;stroke:#008059;stroke-width:1px;"/></g><path d="M105.139,50.299l0,19.296" style="fill:none;stroke:#008059;stroke-width:1.93px;"/><path d="M163.627,35.827l-16.711,9.648" style="fill:none;stroke:#008059;stroke-width:1.93px;"/><path d="M46.65,35.827l16.711,9.648" style="fill:none;stroke:#008059;stroke-width:1.93px;"/><g><path d="M4.873,98.54l16.711,-9.648" style="fill:none;stroke:#008059;stroke-width:1.93px;"/><circle cx="4.873" cy="98.54" r="1.93" style="fill:#008059;stroke:#008059;stroke-width:1px;"/></g></g><g id="Middle-Outlines" serif:id="Middle Outlines"><g><path d="M121.85,69.595l-8.356,-4.824l0,-9.648" style="fill:none;stroke:#008059;stroke-width:1.93px;"/><circle cx="121.85" cy="69.595" r="1.93" style="fill:#008059;stroke:#008059;stroke-width:1px;"/></g><g><path d="M63.361,35.827l8.356,4.824" style="fill:none;stroke:#008059;stroke-width:1.93px;"/><circle cx="63.361" cy="35.827" r="1.93" style="fill:#008059;stroke:#008059;stroke-width:1px;"/></g><g><path d="M163.627,26.179l-16.711,9.648" style="fill:none;stroke:#008059;stroke-width:1.93px;"/><circle cx="146.916" cy="35.827" r="1.93" style="fill:#008059;stroke:#008059;stroke-width:1px;"/></g><g><path d="M55.006,88.892l25.066,-14.473l16.711,0" style="fill:none;stroke:#008059;stroke-width:1.93px;"/><circle cx="55.006" cy="88.892" r="1.93" style="fill:#008059;stroke:#008059;stroke-width:1px;"/></g></g><path id="Top-Fill" serif:id="Top Fill" d="M138.561,2.059l-33.422,19.296l-33.422,-19.296l-25.067,14.472l33.422,19.296l-75.199,43.416l25.066,14.473l75.2,-43.417l33.422,19.296l25.066,-14.472l-33.422,-19.296l33.422,-19.296l-25.066,-14.472Z" style="fill:#fff;"/><g id="Top-Outlines" serif:id="Top Outlines"><g><path d="M4.873,79.243l75.199,-43.416l-33.422,-19.296m0,0l25.067,-14.472l33.422,19.296l33.422,-19.296m0,0l25.066,14.472l-33.422,19.296l33.422,19.296" style="fill:none;stroke:#008059;stroke-width:1.93px;"/><circle cx="163.627" cy="55.123" r="1.93" style="fill:#008059;stroke:#008059;stroke-width:1px;"/><circle cx="4.873" cy="79.243" r="1.93" style="fill:#008059;stroke:#008059;stroke-width:1px;"/></g><g><path d="M138.561,69.417l-33.422,-19.118l-75.2,43.417" style="fill:none;stroke:#008059;stroke-width:1.93px;"/><circle cx="138.561" cy="69.595" r="1.93" style="fill:#008059;stroke:#008059;stroke-width:1px;"/><circle cx="29.939" cy="93.716" r="1.93" style="fill:#008059;stroke:#008059;stroke-width:1px;"/></g></g></g></svg>